<svg xmlns="http://www.w3.org/2000/svg" viewBox="0 0 128 128" role="img" aria-label="云简匠 CareerCraft">
  <defs>
    <linearGradient id="g" x1="10" y1="24" x2="112" y2="112" gradientUnits="userSpaceOnUse">
      <stop offset="0" stop-color="#1d7cff"/>
      <stop offset="1" stop-color="#7c3aed"/>
    </linearGradient>
    <linearGradient id="g2" x1="54" y1="48" x2="112" y2="108" gradientUnits="userSpaceOnUse">
      <stop offset="0" stop-color="#2563eb"/>
      <stop offset="1" stop-color="#6d28d9"/>
    </linearGradient>
    <filter id="s" x="-20%" y="-20%" width="140%" height="140%">
      <feDropShadow dx="0" dy="8" stdDeviation="8" flood-color="#1e293b" flood-opacity=".16"/>
    </filter>
  </defs>
  <path d="M35 92h61c14 0 25-10 25-23 0-12-9-22-21-24C96 27 80 14 61 14 42 14 26 27 22 45 10 48 2 58 2 71c0 12 10 21 23 21h10z" fill="url(#g)" opacity=".98"/>
  <rect x="31" y="36" width="66" height="74" rx="12" fill="#fff" filter="url(#s)"/>
  <path d="M78 36v18a8 8 0 0 0 8 8h11z" fill="#dbe4ff"/>
  <circle cx="51" cy="57" r="8" fill="url(#g2)"/>
  <path d="M38 78c2-12 9-18 13-18s12 6 14 18z" fill="url(#g2)"/>
  <rect x="70" y="55" width="18" height="6" rx="3" fill="url(#g2)"/>
  <rect x="70" y="69" width="24" height="5" rx="2.5" fill="#b9c7ee"/>
  <rect x="40" y="88" width="39" height="5" rx="2.5" fill="#c7d2fe"/>
  <path d="M69 101l10 10 29-30" fill="none" stroke="url(#g2)" stroke-width="10" stroke-linecap="round" stroke-linejoin="round"/>
</svg>
